<svg xmlns="http://www.w3.org/2000/svg" width="15" height="15" viewBox="0 0 15 15">
    <path fill-rule="evenodd" d="M13.89 0H1.107C.497 0 0 .484 0 1.082v12.836C0 14.515.496 15 1.107 15H13.89c.612 0 1.11-.485 1.11-1.082V1.082C15 .484 14.501 0 13.89 0zM2.308 5.77h2.307v6.922H2.308V5.77zm1.154-.924a1.384 1.384 0 1 1-.002-2.768 1.384 1.384 0 0 1 .002 2.768zm9.23 7.846h-2.307V9.231c0-.938-.253-1.829-1.154-1.829-.902 0-1.154.905-1.154 1.84v3.45H5.769V5.77h2.308v.833h.115c.297-.563 1.039-1.041 1.92-1.041 2.13 0 2.58 1.398 2.58 3.093v4.038z"/>
</svg>
